{
  "accessors": [
    {
      "name": "Wooden_Bridge001_1_0_positions",
      "componentType": 5126,
      "count": 1250,
      "min": [
        -602.956787109375,
        12.575775146484375,
        28.308666229248047
      ],
      "max": [
        -600.38916015625,
        15.479155540466309,
        35.61850357055664
      ],
      "type": "VEC3",
      "bufferView": 0,
      "byteOffset": 0
    },
    {
      "name": "Wooden_Bridge001_1_0_texcoords",
      "componentType": 5126,
      "count": 1250,
      "min": [
        0.019517000764608383,
        0.14806100726127625
      ],
      "max": [
        0.36128300428390503,
        0.9773659706115723
      ],
      "type": "VEC2",
      "bufferView": 1,
      "byteOffset": 0
    },
    {
      "name": "Wooden_Bridge001_1_0_indices",
      "componentType": 5123,
      "count": 2754,
      "min": [
        0
      ],
      "max": [
        1249
      ],
      "type": "SCALAR",
      "bufferView": 2,
      "byteOffset": 0
    }
  ],
  "asset": {
    "generator": "obj2gltf",
    "version": "2.0"
  },
  "buffers": [
    {
      "name": "WoodenBridge",
      "byteLength": 30508,
      "uri": "data:application/octet-stream;base64,"
    }
  ],
  "bufferViews": [
    {
      "name": "bufferView_0",
      "buffer": 0,
      "byteLength": 15000,
      "byteOffset": 0,
      "byteStride": 12,
      "target": 34962
    },
    {
      "name": "bufferView_1",
      "buffer": 0,
      "byteLength": 10000,
      "byteOffset": 15000,
      "byteStride": 8,
      "target": 34962
    },
    {
      "name": "bufferView_2",
      "buffer": 0,
      "byteLength": 5508,
      "byteOffset": 25000,
      "target": 34963
    }
  ],
  "materials": [
    {
      "name": "default",
      "pbrMetallicRoughness": {
        "baseColorFactor": [
          0.5,
          0.5,
          0.5,
          1
        ],
        "metallicFactor": 0,
        "roughnessFactor": 1
      },
      "emissiveFactor": [
        0,
        0,
        0
      ],
      "alphaMode": "OPAQUE",
      "doubleSided": false
    }
  ],
  "meshes": [
    {
      "name": "Wooden_Bridge001_1",
      "primitives": [
        {
          "attributes": {
            "POSITION": 0,
            "TEXCOORD_0": 1
          },
          "indices": 2,
          "material": 0,
          "mode": 4
        }
      ]
    }
  ],
  "nodes": [
    {
      "name": "Wooden_Bridge001",
      "mesh": 0
    }
  ],
  "scene": 0,
  "scenes": [
    {
      "nodes": [
        0
      ]
    }
  ]
}
